<svg version="1" xmlns="http://www.w3.org/2000/svg" viewBox="0 0 396 322">
<path fill="hsl(143, 85%, 42%)" d="M368 1c0 .5-1.2 1-2.6 1-1.7 0-4 1.4-6.4 4-2.5 2.6-4.7 4-6.4 4-1.4 0-2.6-.5-2.6-1 0-.6-2.7-1-6-1s-6-.4-6-1c0-.7-14.3-1-41-1s-41 .3-41 1c0 .6-12 1-34 1s-34 .4-34 1c0 .5-1 1-2.5 1-3 0-9.5 6-9.5 8.5 0 .8-.4 1.5-1 1.5-.5 0-1 2-1 4.6 0 2.6-.6 5-1.4 6-1.7 1.6-4.6 2-4.6.4 0-.7-26.7-1-78-1s-78 .3-78 1c0 .5-.7 1-1.6 1-2 0-4.4 2.4-4.4 4.4 0 1-.4 1.6-1 1.6s-1 9.7-1 27 .4 27 1 27 1 .7 1 1.5c0 1 1.6 3 3.5 5 2.6 2.7 4.3 3.5 7 3.5H20v25c0 24.3 0 25 2 25 1 0 2 .4 2 1 0 .5 1.4 1 3 1 1.7 0 3 .4 3 1 0 .5 1.4 1 3 1 1.7 0 3 .4 3 1 0 .5 1.4 1 3 1h3v16h8v46h10v-46h2.6c4.2 0 5.4-2 5.4-9.4V158h3c1.7 0 3-.5 3-1 0-.6 1.4-1 3-1 1.7 0 3-.5 3-1 0-.6 1.4-1 3-1 1.7 0 3-.5 3-1 0-.6 1-1 2-1 2 0 2-.7 2-25v-25h3c1.7 0 3-.5 3-1 0-.6.7-1 1.5-1 2 0 6.5-4.5 6.5-6.5 0-1.3 4-1.5 34.6-1.5 38 0 37.4 0 37.4 6.2 0 2.2.7 4 2 4.8 1 .8 2 2 2 2.8 0 1.8 2.5 4.2 4.4 4.2 1 0 1.6.4 1.6 1 0 .5 1 1 2 1s2 .4 2 1 13 1 37 1h37v3c0 1.6-.4 3-1 3s-1 5.3-1 14-.4 14-1 14-1 5-1 13-.4 13-1 13-1 5.3-1 14-.4 14-1 14-1 5-1 13-.4 13-1 13-1 3-1 7v7H0v80h388v-80h-42v-3c0-1.7-.4-3-1-3s-1-7.3-1-20-.4-20-1-20-1-7-1-19-.4-19-1-19-1-7-1-19-.4-19-1-19c-.5 0-1-2.3-1-5v-5h5.5c4.6 0 6 .4 8 2.5 1.4 1.3 2.5 3 2.5 4 0 .8.5 1.5 1 1.5.6 0 1 2.5 1 5.5 0 4.6.4 6 2.5 8 1.3 1.4 3 2.5 4 2.5.8 0 1.5.4 1.5 1s4.3 1 11 1 11-.4 11-1 .7-1 1.5-1c1 0 3-1.6 5-3.5l3.5-3.4V67c0-63.6 0-63-4.4-63-1 0-1.6-.5-1.6-1 0-.6-1.3-1-3-1-1.6 0-3-.5-3-1 0-.6-3.3-1-8-1s-8 .4-8 1z"></path></svg>