<svg xmlns="http://www.w3.org/2000/svg" version="1" viewBox="-92 0 437 394">
<path fill="hsl(200, 48%, 65%)" d="M90.6.7c-.4.4-5.6 1-11.4 1.5C69.2 3 64.2 3.5 49 6L38.7 7.6c-2 .4-4 1-4.3 1.5-.3.6-2 1-4 1-1.8 0-3.6.4-4 1-.2.5-1.8 1-3.5 1s-3 .4-3 1c0 .5-1.3 1-3 1-1.6 0-3 .4-3 1 0 .5-.7 1-1.5 1C9.7 16 6 18.4 6 20.2c0 1-.4 1.8-1 1.8-.8 0-1.7 6-2.6 19-.2 4-1 8.5-1.6 9.8-1 1.8-1 2.8 0 4.2.7 1 1.2 5 1.2 8.5 0 3.7.4 6.5 1 6.5s1 1.3 1 3c0 1.6.5 3 1 3 .6 0 1 .7 1 1.6 0 2.7 5.7 7 11.5 9 5.7 1.7 10.6 1.6 28-.6l25.8-4c16.3-2.8 37.4-3 44.2-.8 7.4 2.6 12.3 5.3 16 9.2C136.3 95 140 101 140 104c0 1 .5 2 1 2.2 1.6.5 1.7 22.5 0 24-.5.7-1 2.2-1 3.5 0 1.3-.4 2.3-1 2.3-.5 0-1 .7-1 1.5 0 2-15 17-17.8 18-1.2.3-2.2 1-2.2 1.6 0 .6-1 1-2 1s-2 .4-2.2 1c-.4 1-20.7 11-22.5 11-.7 0-1.3.4-1.3 1 0 .5-1 1-2 1s-2 .4-2 1c0 .5-1 1-2 1s-2 .3-2.2.7c0 .5-2.3 2-4.8 3.2-2.5 1.3-4.7 2.6-5 3-.3.3-2 1.7-4 3s-4 3-4.5 3.5c-2.3 2-7.5 10.4-7.5 11.7 0 .8-.5 2-1.2 2.6-.7.7-1 5-1.2 11.4 0 10 0 10.5 3.2 15 1.8 2.6 4.6 5.5 6.2 6.5 1.7 1 3 2 3 2.5 0 .4 1 .8 2 .8s2 .4 2 1c0 .5 1.4 1 3 1 1.7 0 3 .4 3 1 0 .4 1.7 1 3.8 1.4 7.8 1.4 26.2 2.8 28.5 2.2 1.4-.3 4.7-2.7 7.4-5.4 2.6-2.6 6.4-5.8 8.3-7.2 2-1.3 4.2-3 5-4 .8-.8 2.7-2 4.3-3 1.5-.7 2.7-1.7 2.7-2 0-.4 1.4-1.3 3-2 1.7-.7 3-1.6 3-2 0-.4 1.4-1.3 3-2 1.7-.7 3-1.6 3-2 0-.4.8-1 1.8-1.3 1.7-.6 7.3-3.7 8.2-4.7.3-.3 2.6-1.7 5.2-3 2.7-1.4 4.8-2.8 4.8-3.2 0-.5 1-.8 2-.8s2-.3 2-.8c0-.4 2.3-1.8 5-3 2.8-1.5 5-3 5-3.4 0-.4 1-.8 2-.8s2-.4 2-1c0-.4.8-1 1.8-1.3 2-.7 7-3.7 9-5.4.6-.6 2-1.5 3.2-1.8 1-.3 2-1 2-1.6 0-.6.6-1 1.3-1 .7 0 2.2-.8 3.3-2 1-1 3-2.3 4.3-3 6-3.2 23.8-21.2 26.2-26.6.6-1.3 1.5-2.4 2-2.4.4 0 .8-1 .8-2s.5-2 1-2c.6 0 1-1 1-2s.5-2 1-2c.6 0 1-.7 1-1.5s.4-2.3 1-3.3c1.4-3 3-8.8 3-11.5 0-1.4.5-3 1-3.2.6-.3 1-4.4 1-9 0-5 .5-9.3 1.2-10.5 1-1.6 1-2.4 0-4-.7-1-1.2-5.3-1.2-10 0-4.3-.4-8.2-1-8.5-.5-.3-1-2.4-1-4.6 0-2.2-.4-4-1-4-.5 0-1-1.4-1-3 0-1.7-.4-3-1-3-.5 0-1-1-1-2 0-2-5.8-13.3-7.2-13.8-.4-.2-.8-1-.8-1.8 0-1.7-16.5-18.4-20.7-21-1.8-1-3.3-2.2-3.3-2.6 0-.4-1-.8-2-.8s-2-.4-2.2-1c-.4-1-12.4-7-14.3-7-.8 0-1.5-.5-1.5-1 0-.6-1-1-2.4-1s-2.8-.5-3-1c-.4-.6-1.8-1-3-1-1.4 0-2.8-.5-3-1-.4-.6-2-1-3.7-1-1.7 0-3-.4-3-1 0-.4-2-1-4.2-1.3-2.4-.3-6.8-1-9.8-1.7-3-.6-9.3-1.5-14-2C135.5.5 91.7-.5 90.6.6zM85.5 300c-12.2 1.2-17.4 2-18 3-.4.6-1.7 1-3 1-1.4 0-2.5.4-2.5 1 0 .4-1.2 1-2.7 1.3-7.7 1.6-19.3 15.5-19.3 23 0 1.3-.5 2.8-1 3.4-.7.6-1 5.7-.7 14.4.5 14.5 1.4 21 2.8 21 .6 0 1 .7 1 1.5s.6 2.5 1.3 3.7c2 3.5 9.5 10.8 11.2 10.8.8 0 1.5.3 1.5.8 0 .4 1.5 1.3 3.3 2l5 2.3c1 .6 3 1 4.7 1 1.6 0 3 .4 3 1s2.6 1 5.8 1c3.2 0 6.3.5 6.8 1 2 2 43.7 0 45.8-2 .6-.6 2.5-1 4.3-1 1.8 0 3.3-.5 3.3-1 0-.6 1-1 2-1 2.2 0 10-4 10-5.2 0-.4.6-.8 1.4-.8 3.2 0 11.3-12 13.2-19.5 1-3.8 1-27.8 0-32.8-.5-2-1.2-3.7-1.6-3.7-.4 0-1-1.4-1.4-3-.6-3.5-11.4-15-14-15-1 0-1.6-.5-1.6-1 0-.6-1-1-2-1s-2-.5-2-1c0-.6-1.3-1-3-1-1.6 0-3-.5-3-1 0-.6-1.6-1-3.6-1s-4.3-.4-5.2-1c-2.5-1-31-2-41.7-1z">
</path>
</svg>