<svg xmlns="http://www.w3.org/2000/svg" version="1" viewBox="0 0 366 394"><path fill="hsl(40, 74%, 26%)" d="M171 6.4c-6.5 3.5-18 10-32.5 18.5l-19 11-16.5 9.5L86.6 55C76.8 60.5 42 80.6 39 82.4c-2 1.2-4.7 2.8-6.2 3.5-1.6.7-2.8 1.8-2.8 2.5 0 .6 6.6 4.8 14.8 9.5 8 4.6 15.8 9 17.2 10 1.4 1 5 3 8 4.7 3 1.7 8 4.4 10.8 6.2 3 1.6 5.7 3 6.2 3s2.6-1 4.7-2l26-15c3.5-2.3 6.5-4 6.7-4 .3 0 4-2 8.3-4.6l11.8-7 17-9.7 13-7.6.3-33.4c0-18.5 0-33.6-.5-33.6s-2 .6-3.3 1.4zM199 38.4v33.4l6.8 4c3.7 2.2 8.3 5 10.2 6 2 1 18.5 10.6 36.8 21.2l33.4 19.3 5-2.6c3-1.5 7.4-4 10-5.4 2.5-1.6 13.2-7.7 23.7-13.7 10.4-6 19-11.5 19-12 0-.6-6.5-4.7-14.3-9.2-24.8-14-66.4-38.2-70.6-40.8-2-1.4-4.2-2.6-4.5-2.6-.3 0-2.2-1-4.3-2.3l-8.2-5c-10-5.6-36.6-21-38.5-22.3-4.5-3.2-4.5-3.3-4.5 32zM180 96l-7 4-21 12.3c-6.7 3.7-11.6 6.6-28.8 16.6-9.6 5.5-17.6 10-18 10-.2 0-1.7 1-3.3 2l-3 2v50.4c0 43 .2 50.5 1.5 51.6 1.5 1.2 12.5 8 13 8 .2 0 4 2 8.2 4.6 14.5 8.7 57.8 33.6 62 35.8 4 2 2 2.8 27.8-12.2l22.5-13 18.5-10.7 18.3-10.5 4.2-2.4-.2-51-.3-51-5-2.8c-5.8-3.5-43.4-25.2-49-28.4l-18-10.3c-7.7-4.4-14.7-8-15.5-8-.8 0-4 1.4-7 3zM17 110.5c-.5 41.5.2 166 1 166.3.5.2 5.6-2.3 11.2-5.6l27.3-15.7c9.4-5.3 17.4-10 17.8-10.5.4-.4.8-23.3.8-51 0-40.5 0-50.5-1.2-51.6-1-1-32.2-19.3-50.3-29.5-5-3-6.5-3.5-6.5-2.5zM343.6 116.6c-6 3.6-13 7.6-15.5 9-11 6.2-23.7 14-26.7 16l-3.3 2.5v49.4c0 37.8.3 49.6 1.3 50.8.6 1 5.3 4 10.2 6.8 5 2.8 17 10 27 15.6 10 5.7 18.7 10.4 19.4 10.4.7 0 1-21.6 1-83.5 0-66.2-.3-83.5-1.2-83.4-.7 0-6.2 3-12.2 6.6zM83 267c-2 1.3-12.3 7.3-23 13.5-28 16-29.3 17-29.7 18.2-.2.6 5 4.3 12 8 6.7 4 17.4 10 23.7 13.8l17 9.7c3 1.7 6 3.4 6.5 4l44 25.4c2.3 1.2 12 6.8 21.4 12.3 9.4 5.5 17.8 10 18.6 10 1.2 0 1.4-4.7 1.2-33.2l-.3-33.3-6.2-3.7-33.5-19.4L105 275l-5-2.8c-2.5-1.2-4.3-2.2-9.2-5.5-3.3-2.2-3.6-2-7.8.4zM280.5 268.2L269 275l-15.5 9-13 7.5-20 11.5c-8.8 5-17.2 10-18.7 10.7L199 315v33.6c0 26 .3 33.4 1.3 33.4.6 0 4.6-2 8.7-4.3l35-20.2 35.5-20.5 11.5-6.7 45.3-26.2c4.2-2.4 7.6-5 7.4-5.5-.2-.5-7-5-15.3-9.6l-25-14.5C289 266 287 265 286.3 265c-.4 0-3 1.5-5.7 3.2z"></path></svg>