<svg xmlns="http://www.w3.org/2000/svg" version="1" viewBox="0 0 392 392">
<path fill="hsl(285, 85%, 44%)"  d="M0 1.5c0 1 5.4 7 12 13.5l12 12v123.5c0 81.7.3 123.5 1 123.5.6 0 1 1.3 1 3 0 1.6.5 3 1 3 .6 0 1 1 1 2.5 0 2.8 11.8 15.5 14.5 15.5.8 0 1.5.4 1.5 1 0 .5 1 1 2 1s2 .4 2 1c0 .5 1.3 1 2.8 1 1.6 0 3.4.8 4.2 2 1.2 1.7 2.6 2 9.2 2 4.5 0 7.8-.4 7.8-1s.7-1 1.5-1c1.8 0 6.5-4.4 6.5-6 0-.6 2.3-3.3 5-6 2.8-2.7 5-5.4 5-6 0-.6 2.2-3.3 5-6 2.7-2.7 5-5.4 5-6 0-.6 1.8-3 4-5s4-4.5 4-5.2c0-.7 1-2 2-2.8 2-1.4 2-2.6 2-131.2V0H56C6.4 0 0 .2 0 1.5zM92 59v43H42V61c0-26.7-.3-41-1-41-.5 0-1-1-1-2 0-2 .7-2 26-2h26v43z"></path>
<path fill="hsl(285, 85%, 44%)" d="M162 129c0 50.7-.3 77-1 77-.5 0-1 .8-1 1.8s-1 2.4-2 3.2c-1 .8-2 2-2 2.8 0 .7-1.8 3-4 5.2-2.2 2-4 4.4-4 5 0 .6-1.8 3-4 5s-4 4.4-4 5c0 .6-1.8 3-4 5s-4 4.4-4 5c0 .6-1.8 3-4 5s-4 4.4-4 5c0 .6-1.8 3-4 5s-4 4.4-4 5c0 .6-2.2 3.3-5 6-2.7 2.7-5 5.4-5 6 0 .6-1.8 3-4 5s-4 4.4-4 5c0 .6-1.8 3-4 5s-4 4.4-4 5c0 .6-1.8 3-4 5s-4 4.4-4 5c0 .7-1.3 2.5-3 4-1.6 1.5-3 3.3-3 4 0 .6-1.8 3-4 5s-4 4.4-4 5c0 .6-1.8 3-4 5s-4 4.4-4 5c0 .6-1.8 3-4 5s-4 4.4-4 5c0 .6-1.8 3-4 5s-4 4.4-4 5c0 .6-1.8 3-4 5s-4 4.4-4 5c0 .7-1.3 2.5-3 4-1.6 1.5-3 3.4-3 4.2 0 .7-1 2-2 2.8-2 1.5-2.8 7-1 7 .6 0 1 1.3 1 3 0 2.3.4 3 2 3 1 0 2 .4 2 1 0 .5 1.4 1 3 1 1.7 0 3 .4 3 1 0 .7 58.3 1 173 1s173-.3 173-1c0-.6.7-1 1.5-1 1 0 2.7-1 4-2.5 2.2-2 2.5-3.3 2.5-9.5 0-7 0-7.2-4-11-2.2-2-4-4.4-4-5 0-.6-1.8-3-4-5s-4-4.4-4-5c0-.6-1.8-3-4-5s-4-4.4-4-5c0-.6-1.8-3-4-5s-4-4.4-4-5c0-.6-1.8-3-4-5s-4-4.4-4-5c0-.6-1.8-3-4-5s-4-4.4-4-5c0-.6-1.8-3-4-5s-4-4.4-4-5c0-.6-1.8-3-4-5s-4-4.4-4-5c0-.6-1.8-3-4-5s-4-4.4-4-5c0-.6-1.8-3-4-5s-4-4.4-4-5c0-.6-1.8-3-4-5s-4-4.4-4-5c0-.6-1.8-3-4-5s-4-4.4-4-5c0-.6-1.8-3-4-5s-4-4.4-4-5c0-.6-1.8-3-4-5s-4-4.4-4-5c0-.6-1.8-3-4-5s-4-4.4-4-5c0-.6-1.8-3-4-5s-4-4.6-4-5.4c0-1-.4-1.6-1-1.6s-1-6.7-1-18-.4-18-1-18c-.7 0-1-17-1-49 0-43 .2-49 1.5-49S286 53.8 286 52.5c0-.3-28-.5-62-.5h-62v77zm82-20c0 25.3-.4 39-1 39s-1 4-1 10v10h-62V70h64v39z"></path></svg>