<svg xmlns="http://www.w3.org/2000/svg" version="1" viewBox="0 0 396 330"><path fill="hsl(252, 85%, 44%)" d="M96 1c0 .5-1.3 1-3 1-1.6 0-3 .4-3 1 0 .5-.8 1-1.8 1S85.8 5 85 6c-.8 1-2 2-2.8 2-.7 0-2.8 1.6-4.7 3.5-2 2-3.5 4-3.5 4.7 0 .8-1 2-2 2.8-1 .8-2 2.2-2 3.2s-.4 1.8-1 1.8c-.5 0-1 1-1 2s-.4 2-1 2c-.5 0-1 1.3-1 3 0 1.6-.4 3-1 3-.5 0-1 1-1 2s-.4 2-1 2c-.5 0-1 1.3-1 3 0 1.6-.4 3-1 3-.5 0-1 1-1 2s-.4 2-1 2c-.5 0-1 1.3-1 3 0 1.6-.4 3-1 3-.5 0-1 1.3-1 3 0 1.6-.4 3-1 3-.5 0-1 1-1 2s-.4 2-1 2c-.5 0-1 1.3-1 3 0 1.6-.4 3-1 3-.5 0-1 1-1 2s-.4 2-1 2c-.5 0-1 1.3-1 3 0 1.6-.4 3-1 3-.5 0-1 1.3-1 3 0 1.6-.4 3-1 3-.5 0-1 1-1 2s-.4 2-1 2c-.5 0-1 1.3-1 3 0 1.6-.4 3-1 3-.5 0-1 1-1 2s-.4 2-1 2c-.5 0-1 1.3-1 3 0 1.6-.4 3-1 3-.5 0-1 .7-1 1.6 0 2-2.4 4.4-4.4 4.4-1 0-1.6.4-1.6 1 0 .5-1 1-2 1s-2 .4-2 1c0 .5-1 1-2 1s-2 .4-2 1c0 .5-.7 1-1.5 1-2 0-14.5 12.5-14.5 14.5 0 .8-.4 1.5-1 1.5-.5 0-1 1-1 2s-.4 2-1 2c-.5 0-1 1.3-1 3 0 1.6-.4 3-1 3-.7 0-1 21-1 61v61h30v20c0 12.7.4 20 1 20s1 1.3 1 3c0 1.6.5 3 1 3 .6 0 1 1 1 2s.5 2 1 2c.6 0 1 .7 1 1.5 0 2 6.5 8.5 8.5 8.5.8 0 1.5.4 1.5 1 0 .5 1 1 2 1s2 .4 2 1 4.3 1 11 1 11-.4 11-1 1-1 2-1 2-.5 2-1c0-.6.7-1 1.5-1 2 0 8.5-6.4 8.5-8.2 0-.8 1-2 2-2.8 1.4-1 2-2.6 2-5.2 0-2 .5-3.8 1-3.8.6 0 1-7.3 1-20v-20h210v19c0 12 .4 19 1 19s1 1.8 1 4 .5 4 1 4c.6 0 1 1 1 2s.5 2 1 2c.6 0 1 .7 1 1.5 0 2 4.4 6.5 6.2 6.5.8 0 2 1 2.8 2 .8 1.2 2.6 2 4.2 2 1.5 0 2.8.4 2.8 1s4 1 10 1 10-.4 10-1 1-1 2-1 2-.5 2-1c0-.6.7-1 1.5-1 2 0 10.5-8.5 10.5-10.5 0-.8.5-1.5 1-1.5.6 0 1-1.4 1-3 0-1.7.5-3 1-3 .6 0 1-7.7 1-21v-21h32v-58c0-38-.3-58-1-58-.5 0-1-1.8-1-4s-.4-4-1-4c-.5 0-1-1.4-1-3 0-1.7-.4-3-1-3-.5 0-1-.7-1-1.6 0-1-1.3-3-3-4.4-1.6-1.5-3-3.3-3-4 0-1.5-2.5-4-4-4-.7 0-2.5-1.4-4-3-1.5-1.7-3.5-3-4.4-3-1 0-1.6-.5-1.6-1 0-.6-1.3-1-3-1-1.6 0-3-.5-3-1 0-.6-.7-1-1.6-1-2.3 0-4.4-2.5-4.4-5.4 0-1.4-.4-2.6-1-2.6-.5 0-1-1-1-2s-.4-2-1-2c-.5 0-1-1.4-1-3 0-1.7-.4-3-1-3-.5 0-1-1-1-2s-.4-2-1-2c-.5 0-1-1.4-1-3 0-1.7-.4-3-1-3-.5 0-1-1.4-1-3 0-1.7-.4-3-1-3-.5 0-1-1-1-2s-.4-2-1-2c-.5 0-1-1.4-1-3 0-1.7-.4-3-1-3-.5 0-1-1-1-2s-.4-2-1-2c-.5 0-1-1.4-1-3 0-1.7-.4-3-1-3-.5 0-1-1-1-2s-.4-2-1-2c-.5 0-1-1.4-1-3 0-1.7-.4-3-1-3-.5 0-1-1.4-1-3 0-1.7-.4-3-1-3-.5 0-1-1-1-2s-.4-2-1-2c-.5 0-1-1.4-1-3 0-1.7-.4-3-1-3-.5 0-1-1-1-2s-.4-2-1-2c-.5 0-1-1-1-2s-.4-2-1-2c-.5 0-1-1-1-2s-.4-2-1-2c-.5 0-1-.7-1-1.5 0-2-10.5-12.5-12.5-12.5-.8 0-1.5-.5-1.5-1 0-.6-1-1-2-1s-2-.5-2-1c0-.6-1.3-1-3-1-1.6 0-3-.5-3-1 0-.7-34.3-1-101-1S96 .3 96 1zm197.5 35.5c2.5 2.4 4.5 5 4.5 6 0 .8.5 1.5 1 1.5.6 0 1 1.3 1 3 0 1.6.5 3 1 3 .6 0 1 1.3 1 3 0 1.6.5 3 1 3 .6 0 1 1 1 2s.5 2 1 2c.6 0 1 1.3 1 3 0 1.6.5 3 1 3 .6 0 1 1.3 1 3 0 1.6.5 3 1 3 .6 0 1 1.3 1 3 0 1.6.5 3 1 3 .6 0 1 1 1 2s.5 2 1 2c.6 0 1 1.3 1 3 0 1.6.5 3 1 3 .6 0 1 1.3 1 3 0 1.6.5 3 1 3 .6 0 1 1 1 2s.5 2 1 2c.6 0 1 1.3 1 3 0 1.6.5 3 1 3 .6 0 1 1.3 1 3 0 1.6.5 3 1 3 .6 0 1 .4 1 1 0 .7-42.7 1-126 1H72v-3c0-1.7.5-3 1-3 .6 0 1-1.4 1-3 0-1.7.5-3 1-3 .6 0 1-1.4 1-3 0-1.7.5-3 1-3 .6 0 1-1 1-2s.5-2 1-2c.6 0 1-1.4 1-3 0-1.7.5-3 1-3 .6 0 1-1.4 1-3 0-1.7.5-3 1-3 .6 0 1-1 1-2s.5-2 1-2c.6 0 1-1.4 1-3 0-1.7.5-3 1-3 .6 0 1-1.4 1-3 0-1.7.5-3 1-3 .6 0 1-1 1-2s.5-2 1-2c.6 0 1-1.4 1-3 0-1.7.5-3 1-3 .6 0 1-1.4 1-3 0-1.7.5-3 1-3 .6 0 1-1 1-2s.5-2 1-2c.6 0 1-.7 1-1.5 0-2 4.5-6.5 6.5-6.5.8 0 1.5-.5 1.5-1 0-.7 31.2-1 91.5-1H289l4.5 4.5zM70 147c0 .5 1 1 2 1s2 .4 2 1c0 .5.7 1 1.5 1 1 0 3 1.6 5 3.5 2 2 3.5 4 3.5 5 0 .8.5 1.5 1 1.5.6 0 1 1 1 2s.5 2 1 2c.6 0 1 3.3 1 8s-.4 8-1 8c-.5 0-1 1-1 2s-.4 2-1 2c-.5 0-1 .7-1 1.5 0 2-8.5 10.5-10.5 10.5-.8 0-1.5.4-1.5 1 0 .5-1.3 1-3 1-1.6 0-3 .4-3 1 0 .5-1.8 1-4 1s-4-.5-4-1c0-.6-1.3-1-3-1-1.6 0-3-.5-3-1 0-.6-.7-1-1.5-1-2 0-10.5-8.5-10.5-10.5 0-.8-.4-1.5-1-1.5-.5 0-1-1-1-2s-.4-2-1-2-1-3.3-1-8 .4-8 1-8 1-1 1-2 .5-2 1-2c.6 0 1-.7 1-1.5 0-2 6.5-8.5 8.5-8.5.8 0 1.5-.5 1.5-1 0-.6 1-1 2-1s2-.5 2-1c0-.6 3.3-1 8-1s8 .4 8 1zm272 0c0 .5.7 1 1.5 1 2.6 0 12.5 10.7 12.5 13.5 0 1.4.5 2.5 1 2.5.6 0 1 3.7 1 9s-.4 9-1 9c-.5 0-1 .7-1 1.5 0 2-10.5 12.5-12.5 12.5-.8 0-1.5.4-1.5 1 0 .5-1.3 1-3 1-1.6 0-3 .4-3 1 0 .5-1.3 1-3 1-1.6 0-3-.5-3-1 0-.6-1.8-1-4-1s-4-.5-4-1c0-.6-.7-1-1.5-1-2 0-10.5-8.5-10.5-10.5 0-.8-.4-1.5-1-1.5-.5 0-1-1.4-1-3 0-1.7-.4-3-1-3s-1-2.7-1-6 .4-6 1-6 1-1.3 1-2.8c0-1.6.8-3.4 2-4.2 1-.8 2-2 2-2.8 0-1.8 4.6-6.2 6.5-6.2.8 0 1.5-.5 1.5-1 0-.6 1-1 2-1s2-.5 2-1c0-.6 3.7-1 9-1s9 .4 9 1z"></path></svg>