<svg xmlns="http://www.w3.org/2000/svg" version="1" viewBox="0 0 396 396"><path fill="hsl(214, 85%, 44%)" d="M104 1c0 .6-2.7 1-6 1s-6 .4-6 1-3 1-7 1-7 .4-7 1c0 .5-1 1-2 1-2 0-2 .7-2 11.6 0 11.7-.8 14.4-4.2 14.4-.8 0-2 1-2.8 2-.8 1-2.2 2-3.2 2s-1.8.4-1.8 1c0 .5-1 1-2 1s-2-.5-2-1c0-.6-1.3-1-3-1-1.6 0-3-.5-3-1 0-.6-1-1-2-1s-2-.5-2-1c0-.6-1-1-2-1s-2-.5-2-1c0-.6-1-1-2-1s-2-.5-2-1c0-.6-.7-1-1.5-1-1.8 0-8.5 6.4-8.5 8 0 .7-1.3 2.5-3 4-1.6 1.5-3 3.3-3 4 0 .7-1.3 2.5-3 4-1.6 1.5-3 3.4-3 4.2 0 .7-1 2-2 2.8-3.7 2.7-2.5 5.6 6 14 7 7 8 8.4 8 11.5 0 2-.4 3.5-1 3.5-.5 0-1 1.6-1 3.6 0 4.2-2 6.4-5.4 6.4-1.4 0-2.6.4-2.6 1 0 .5-1.3 1-3 1-1.6 0-3 .4-3 1 0 .5-1.3 1-3 1-1.6 0-3 .4-3 1 0 .5-.7 1-1.6 1-2.2 0-5.3 3.2-3.6 3.8.8.2 1.2 2.5 1.2 6.3 0 3.4.4 6 1 6s1 2.7 1 6 .4 6 1 6 1 2.7 1 6v6h14c13.3 0 14 0 14 2 0 1 .5 2 1 2 .6 0 1 1 1 2s.5 2 1 2c.6 0 1 1 1 2s.5 2 1 2c.6 0 1 1.3 1 3 0 1.6-.4 3-1 3-.5 0-1 1-1 2s-.4 2-1 2c-.5 0-1 1-1 2s-.4 2-1 2c-.5 0-1 1-1 2s-.4 2-1 2c-.5 0-1 1-1 2s-.4 2-1 2c-1.5 0-1.2 3 .4 4.6.8.8 2 1.4 2.8 1.4.8 0 2 1 2.8 2 .8 1 2 2 3 2s2.2 1 3 2c.8 1 2 2 2.8 2 .8 0 2.7 1.3 4.2 3 1.5 1.6 3.4 3 4.2 3 .7 0 2 1 2.8 2 2.3 3 5.7 2.5 10-2 2-2.2 4.4-4 5-4 .6 0 3-1.8 5-4 3.6-3.8 7-5.2 7-3 0 .5 2 1 4.5 1 5.4 0 9.5 3.3 9.5 7.5 0 1.4.5 2.5 1 2.5.6 0 1 1.3 1 3 0 1.6.5 3 1 3 .6 0 1 1.3 1 3 0 1.6.5 3 1 3 .6 0 1 1 1 2 0 1.3.7 2 2 2 1 0 2-.5 2-1 0-.6 2.7-1 6-1s6-.4 6-1 3-1 7-1 7-.4 7-1 2.3-1 5-1h5v-12.6c0-13 .7-15.4 4.4-15.4 1 0 1.6-.5 1.6-1 0-.6.8-1 1.8-1s2.4-1 3.2-2c1.5-2 5-2.8 5-1 0 .5 1 1 2 1s2 .4 2 1c0 .5 1 1 2 1s2 .4 2 1c0 .5 1.4 1 3 1 1.7 0 3 .4 3 1 0 .5 1 1 2 1s2 .4 2 1c0 1.5 5 1.2 6.6-.4.8-.8 1.4-2 1.4-2.8 0-.8 1-2 2-2.8 1-.8 2-2 2-2.8 0-.8 1.4-2.7 3-4.2s3-3.3 3-4c0-.7 1.4-2.5 3-4 1.7-1.5 3-3.5 3-4.4 0-1 .5-1.6 1-1.6.6 0 1-1 1-2.5 0-2-2.2-4.7-8-10.5-7-7-8-8.4-8-11.5 0-2 .5-3.5 1-3.5.6 0 1-1.8 1-4 0-3.3.3-4 2-4 1 0 2-.5 2-1 0-.6 1.4-1 3-1 1.7 0 3-.5 3-1 0-.6 1.4-1 3-1 1.7 0 3-.5 3-1 0-.6 1.2-1 2.6-1 4.2 0 5.4-2 5.4-9.4 0-3.7-.4-6.6-1-6.6s-1-2.7-1-6-.4-6-1-6-1-2.7-1-6v-6h-10c-6 0-10-.4-10-1s-1.2-1-2.6-1c-2.7 0-5.4-2-5.4-4 0-.7-1.4-2.5-3-4-2.3-2-3-3.7-3-6.4 0-2 .5-3.6 1-3.6.6 0 1-1 1-2s.5-2 1-2c.6 0 1-1 1-2s.5-2 1-2c.6 0 1-1 1-2s.5-2 1-2c.6 0 1-1 1-2s.5-2 1.2-2.2c1.5-.5-5.5-7.8-7.4-7.8-.8 0-2-1-2.8-2-.8-1-2-2-2.8-2-.8 0-2.7-1.4-4.2-3-1.5-1.7-3.4-3-4.2-3-.7 0-2-1-2.8-2-.8-1-2.2-2-3.2-2s-1.8-.5-1.8-1c0-2.5-3.6-.5-9 5-3.2 3.3-6.5 6-7.2 6-.8 0-2 1-2.8 2-1 1.4-2.6 2-5.2 2-2 0-3.8-.5-3.8-1 0-.6-1.8-1-4-1-3.3 0-4-.3-4-2 0-1-.4-2-1-2-.5 0-1-1-1-2s-.4-2-1-2c-.5 0-1-1.4-1-3 0-1.7-.4-3-1-3-.5 0-1-1.4-1-3 0-1.7-.4-3-1-3-.5 0-1-1-1-2 0-1.7-.7-2-5-2-2.7 0-5 .4-5 1zm18 50c0 .5 1.4 1 3 1 1.7 0 3 .4 3 1 0 .5 1.3 1 2.8 1 1.6 0 3.4.8 4.2 2 .8 1 2.2 2 3.2 2s1.8.4 1.8 1c0 .5.7 1 1.6 1 1 0 3 1.3 4.4 3 1.5 1.6 3.5 3 4.4 3 1 0 1.6.8 1.6 1.8s1 2.4 2 3.2c1 .8 2 2.2 2 3.2s.5 1.8 1 1.8c.6 0 1 1 1 2s.5 2 1 2c.6 0 1 1 1 2s.5 2 1 2c.6 0 1 1 1 2s.5 2 1 2c.6 0 1 1.3 1 3 0 1.6.5 3 1 3 .6 0 1 3.3 1 8s-.4 8-1 8c-.5 0-1 1.8-1 4s-.4 4-1 4c-.5 0-1 1.3-1 3 0 1.6-.4 3-1 3-.5 0-1 1-1 2s-.4 2-1 2c-.5 0-1 1-1 2s-.4 2-1 2c-.5 0-1 .7-1 1.5 0 2-14.5 16.5-16.5 16.5-.8 0-1.5.4-1.5 1 0 .5-1 1-2 1s-2 .4-2 1c0 .5-1 1-2 1s-2 .4-2 1c0 .5-1.8 1-4 1s-4 .4-4 1-2.6 1-6 1c-3.7 0-6 .5-6.4 1.2-.5 1-.7 1-1.2 0-.4-.7-2.7-1.2-6.5-1.2-3.4 0-6-.4-6-1s-1-1-2-1-2-.5-2-1c0-.6-1.3-1-3-1-1.6 0-3-.5-3-1 0-.6-1-1-2-1s-2-.5-2-1c0-.6-.7-1-1.6-1-.8 0-3.3-1.8-5.4-4-2-2.2-4.6-4-5.4-4-1 0-1.6-.8-1.6-1.8s-1-2.4-2-3.2c-1-.8-2-2.2-2-3.2s-.4-1.8-1-1.8c-.5 0-1-1-1-2s-.4-2-1-2c-.5 0-1-1-1-2s-.4-2-1-2c-.5 0-1-1.4-1-3 0-1.7-.4-3-1-3-.5 0-1-1.4-1-3 0-1.7-.4-3-1-3s-1-3-1-7 .4-7 1-7 1-1.8 1-4 .5-4 1-4c.6 0 1-1.4 1-3 0-1.7.5-3 1-3 .6 0 1-1 1-2s.5-2 1-2c.6 0 1-1 1-2s.5-2 1-2c.6 0 1-.7 1-1.5 0-2 10.4-12.5 12.3-12.5.7 0 2-1 2.7-2 .8-1 2.2-2 3.2-2s1.8-.5 1.8-1c0-.6 1-1 2-1s2-.5 2-1c0-.6 1-1 2-1s2-.5 2-1c0-.6 1.8-1 4-1s4-.5 4-1c0-.6 4.3-1 11-1s11 .4 11 1zM258 149c0 .5-1.8 1-4 1s-4 .4-4 1c0 .5-2.2 1-5 1-2.7 0-5 .4-5 1 0 .5-1.8 1-4 1s-4 .4-4 1c0 .5-2.2 1-5 1-2.7 0-5 .4-5 1 0 .5-1 1-2 1-1.8 0-2 .7-2 6 0 3.3.4 6 1 6s1 4 1 10c0 9-.2 10-1.8 10-1 0-2.4 1-3.2 2-.8 1-2 2-3 2s-2.2 1-3 2c-1.5 2-7 2.8-7 1 0-.6-1.3-1-3-1-1.6 0-3-.5-3-1 0-.6-1-1-2-1s-2-.5-2-1c0-.6-1.3-1-3-1-1.6 0-3-.5-3-1 0-.6-1-1-2-1s-2-.5-2-1c0-1.5-7-1.2-8.6.4-.8.8-1.4 2.2-1.4 3 0 1-.4 1.6-1 1.6-.5 0-1 .8-1 1.8s-1 2.4-2 3.2c-1 .8-2 2-2 3s-1 2.2-2 3c-1 .8-2 2-2 3s-1 2.2-2 3c-1 .8-2 2-2 3s-1 2.2-2 3c-1 .8-2 2.2-2 3.2s-.4 1.8-1 1.8c-.5 0-1 1-1 2.5 0 1.8 2 4.5 6.5 9 3.5 3.6 7 6.5 7.5 6.5.6 0 2.6 1.6 4.5 3.5 2.7 2.6 3.5 4.3 3.5 7 0 2-.4 3.5-1 3.5-.5 0-1 2-1 4.6 0 5.2-1.6 7.4-5.4 7.4-1.4 0-2.6.4-2.6 1 0 .5-1 1-2 1s-2 .4-2 1c0 .5-1.3 1-3 1-1.6 0-3 .4-3 1 0 .5-1 1-2 1s-2 .4-2 1c0 .5-1 1-2 1s-2 .4-2 1c0 .5-1 1-2 1-1.6 0-2 .7-2 3 0 1.6.5 3 1 3 .6 0 1 2.2 1 5 0 2.7.5 5 1 5 .6 0 1 1.8 1 4s.5 4 1 4c.6 0 1 1.8 1 4s.5 4 1 4c.6 0 1 2.2 1 5 0 2.7.5 5 1 5 .6 0 1 1 1 2 0 2 .7 2 9 2 5.3 0 9-.4 9-1s2.8-1 6.5-1c5.7 0 7 .3 9 2.5 1.4 1.3 2.5 3 2.5 3.6 0 .7 1.4 2.5 3 4 3 2.7 4 6 2 6-.5 0-1 1.3-1 3 0 1.6-.4 3-1 3-.5 0-1 1-1 2s-.4 2-1 2c-.5 0-1 1-1 2s-.4 2-1 2c-.5 0-1 1.3-1 3 0 1.6-.4 3-1 3-.5 0-1 1-1 2s-.4 2-1 2c-.5 0-1 1-1 2 0 1.3.7 2 1.8 2 1 0 2.4 1 3.2 2 .8 1 2 2 3 2s2.2 1 3 2c.8 1 2.2 2 3.2 2s1.8.4 1.8 1c0 .5.8 1 1.8 1s2.4 1 3.2 2c.8 1 2.2 2 3.2 2s1.8.4 1.8 1c0 .5.8 1 1.8 1s2.4 1 3.2 2c.8 1 2.2 2 3.2 2s1.8.4 1.8 1c0 .5 1 1 2.5 1 2 0 5.3-2.8 13.5-11 10-10 14-13 14-10 0 .5 2.5 1 5.6 1 5.7 0 8.4 1.4 8.4 4.4 0 1 .5 1.6 1 1.6.6 0 1 1 1 2s.5 2 1 2c.6 0 1 1 1 2s.5 2 1 2c.6 0 1 1.3 1 3 0 1.6.5 3 1 3 .6 0 1 1 1 2s.5 2 1 2c.6 0 1 .7 1 1.6 0 .8.6 2.2 1.4 3 1.7 1.6 6.6 2 6.6.4 0-.6 2.3-1 5-1 2.8 0 5-.5 5-1 0-.6 1.8-1 4-1s4-.5 4-1c0-.6 2.3-1 5-1 2.8 0 5-.5 5-1 0-.6 1.8-1 4-1s4-.5 4-1c0-.6 1-1 2-1 1.8 0 2-.7 2-6 0-3.3-.4-6-1-6s-1-4-1-9.6c0-9.5 1-12.4 4-12.4.7 0 2.5-1.4 4-3 2.3-2.5 3.6-3 7.4-3 2.5 0 4.6.4 4.6 1 0 .5 1 1 2 1s2 .4 2 1c0 .5 1.4 1 3 1 1.7 0 3 .4 3 1 0 .5 1 1 2 1s2 .4 2 1c0 .5 1.4 1 3 1 1.7 0 3 .4 3 1 0 .5 1.4 1 3 1 2.2 0 3-.5 3-1.8 0-1 1-2.4 2-3.2 1-.8 2-2 2-3s1-2.2 2-3c1-.8 2-2 2-3s1-2.2 2-3c1-.8 2-2 2-3s1-2.2 2-3c1-.8 2-2 2-3s1-2.2 2-3c1-.8 2-2 2-3s1-2.2 2-3c1-.8 2-2 2-2.8 0-1.5-4.5-6.2-6-6.2-.6 0-4.8-3.8-9.5-8.5-6.2-6-8.5-9.2-8.5-11 0-1.4.5-2.5 1-2.5.6 0 1-2 1-4.6 0-5.2 1.6-7.4 5.4-7.4 1.4 0 2.6-.5 2.6-1 0-.6 1-1 2-1s2-.5 2-1c0-.6 1.4-1 3-1 1.7 0 3-.5 3-1 0-.6 1-1 2-1s2-.5 2-1c0-.6 1.2-1 2.6-1 1.4 0 3.2-.6 4-1.4 1.6-1.7 2-6.6.4-6.6-.5 0-1-2.3-1-5 0-2.8-.4-5-1-5-.5 0-1-1.8-1-4s-.4-4-1-4c-.5 0-1-1.8-1-4s-.4-4-1-4c-.5 0-1-2.3-1-5 0-2.8-.4-5-1-5-.5 0-1-1-1-2s-.4-2-1-2c-.5 0-1 .4-1 1s-5.5 1-14.5 1c-14.2 0-14.7 0-17-2.5-1.4-1.3-2.5-3-2.5-3.7 0-.8-1-2-2-2.8-1-.8-2-2.2-2-3.2s-.4-1.8-1-1.8c-.5 0-1-1-1-2s.5-2 1-2c.6 0 1-1 1-2s.5-2 1-2c.6 0 1-1 1-2s.5-2 1-2c.6 0 1-1.4 1-3 0-1.7.5-3 1-3 .6 0 1-1 1-2s.5-2 1-2c.6 0 1-1.3 1-3 0-1.5.6-3 1.2-3.2 1.6-.6-1.4-3.8-3.4-3.8-.8 0-2-1-2.8-2-.8-1-2.2-2-3.2-2s-1.8-.5-1.8-1c0-.6-.8-1-1.8-1s-2.4-1-3.2-2c-.8-1-2.2-2-3.2-2s-1.8-.5-1.8-1c0-.6-.8-1-1.8-1s-2.4-1-3.2-2c-.8-1-2-2-3-2s-2.2-1-3-2c-.8-1-2.2-2-3.2-2s-1.8-.5-1.8-1c0-.6-.7-1-1.5-1-1.8 0-6.5 4.4-6.5 6 0 1.7-17.3 18.5-17.8 17.2-.2-.8-2.7-1.2-7-1.2-6.5 0-9.2-1.3-9.2-4.4 0-1-.4-1.6-1-1.6-.5 0-1-1-1-2s-.4-2-1-2c-.5 0-1-1-1-2s-.4-2-1-2c-.5 0-1-1.4-1-3 0-1.7-.4-3-1-3-.5 0-1-1-1-2s-.4-2-1-2c-.5 0-1-.7-1-1.6 0-.8-.6-2.2-1.4-3-1.7-1.6-6.6-2-6.6-.4zm16 58c0 .6 2.7 1 6 1s6 .4 6 1c0 .5 1.4 1 3 1 1.7 0 3 .4 3 1 0 .5 1 1 2 1s2 .4 2 1c0 .5 1 1 2 1s2 .4 2 1c0 .5 1 1 2 1s2 .4 2 1c0 .5.7 1 1.6 1 1 0 3 1.3 4.4 3 1.5 1.6 3.5 3 4.4 3 1 0 1.6.7 1.6 1.6 0 .8 2.3 3.7 5 6.4 2.8 2.7 5 5.6 5 6.4 0 1 .5 1.6 1 1.6.6 0 1 1 1 2s.5 2 1 2c.6 0 1 1.3 1 3 0 1.6.5 3 1 3 .6 0 1 1.3 1 3 0 1.6.5 3 1 3 .6 0 1 2.2 1 5 0 2.7.5 5 1 5 .6 0 1 2.7 1 6s-.4 6-1 6c-.5 0-1 2.2-1 5 0 2.7-.4 5-1 5-.5 0-1 1.3-1 3 0 1.6-.4 3-1 3-.5 0-1 1-1 2s-.4 2-1 2c-.5 0-1 1-1 2s-.4 2-1 2c-.5 0-1 1-1 2s-.4 2-1 2c-.5 0-1 .7-1 1.5 0 2-16.5 18.5-18.5 18.5-.8 0-1.5.4-1.5 1 0 .5-1 1-2 1s-2 .4-2 1c0 .5-1 1-2 1s-2 .4-2 1c0 .5-1.3 1-3 1-1.6 0-3 .4-3 1 0 .5-1.3 1-3 1-1.6 0-3 .4-3 1s-5.3 1-14 1-14-.4-14-1-1.8-1-4-1-4-.5-4-1c0-.6-1.3-1-3-1-1.6 0-3-.5-3-1 0-.6-1-1-2-1s-2-.5-2-1c0-.6-.7-1-1.6-1-1 0-3-1.4-4.4-3-1.5-1.7-3.3-3-4-3-1.5 0-12-10.7-12-12.3 0-.7-1-2-2-2.7-1-.8-2-2.2-2-3.2s-.4-1.8-1-1.8c-.5 0-1-1-1-2s-.4-2-1-2c-.5 0-1-1.4-1-3 0-1.7-.4-3-1-3-.5 0-1-1-1-2s-.4-2-1-2-1-3-1-7-.4-7-1-7c-.5 0-1-1.4-1-3 0-1.7.5-3 1-3 .6 0 1-2.7 1-6s.4-6 1-6 1-1.8 1-4 .5-4 1-4c.6 0 1-1 1-2s.5-2 1-2c.6 0 1-1 1-2s.5-2 1-2c.6 0 1-.7 1-1.6 0-.8 1.8-3.3 4-5.4 2.2-2 4-4.6 4-5.4 0-1 .7-1.6 1.6-1.6.8 0 3.3-1.8 5.4-4 2-2.2 4.6-4 5.4-4 1 0 1.6-.5 1.6-1 0-.6 1-1 2-1s2-.5 2-1c0-.6 1-1 2-1s2-.5 2-1c0-.6 1-1 2-1s2-.5 2-1c0-.6 1.4-1 3-1 1.7 0 3-.5 3-1 0-.6 2.3-1 5-1 2.8 0 5-.5 5-1 0-.6 2.7-1 6-1s6 .4 6 1z"></path>
<path fill="hsl(214, 85%, 44%)" d="M76 197.8c0 1-1 2.4-2 3.2-1 .8-2 2.2-2 3.2s-.4 1.8-1 1.8c-.5 0-1 .8-1 1.8s-1 2.4-2 3.2c-1 .8-2 2.2-2 3.2 0 1.5-1 1.8-5 1.8-2.7 0-5 .4-5 1 0 .5-1.3 1-3 1-1.6 0-3 .4-3 1 0 .5-1 1-2 1s-2 .4-2 1c0 .5-2.2 1-5 1-2.7 0-5-.5-5-1 0-.6-1.3-1-3-1-1.6 0-3-.5-3-1 0-.6-2-1-4.5-1-4 0-5 .5-8 3.5-2 2-3.5 4-3.5 4.7 0 .8-1 2-2 2.8-2 1.5-2.8 7-1 7 .6 0 1 .8 1 1.8s1 2.4 2 3.2c1 .8 2 2.2 2 3.2s.5 1.8 1 1.8c.6 0 1 1 1 2s.6 2 1.3 2.4c1 .5 1 .7 0 1.2-.7.3-1.3 2-1.3 3.5 0 1.7-.4 3-1 3s-1 3.5-1 8.5v8.6l-4.5 4.5C9 282 6.5 284 6 284c-2 0-6 5-6 7.5 0 1.4.5 2.5 1 2.5.6 0 1 1 1 2s.5 2 1 2c.6 0 1 1.3 1 3 0 1.6.5 3 1 3 .6 0 1 1 1 2 0 2 .7 2 10.6 2H27l5 5c2.7 2.7 5.5 5 6.2 5 .8 0 2 1 2.8 2 .8 1 2 2 2.8 2 .7 0 2.4 1 3.7 2.5 2 1.8 2.5 3.5 2.5 7 0 2.5.5 4.5 1 4.5.6 0 1 1.6 1 3.6 0 5.2 1.8 6.4 9.4 6.4 3.7 0 6.6.4 6.6 1 0 1.5 5 1.2 6.6-.4.8-.8 1.4-2.2 1.4-3 0-1 .5-1.6 1-1.6.6 0 1-.8 1-1.8s1-2.4 2-3.2c1-.8 2-2 2-2.8 0-2.2 2.6-4.2 5.4-4.2 1.4 0 2.6-.5 2.6-1 0-.6 1.4-1 3-1 1.7 0 3-.5 3-1 0-.6 1.4-1 3-1 1.7 0 3-.5 3-1 0-.6 1-1 2-1s2-.5 2-1c0-.6 1.8-1 4-1s4 .4 4 1c0 .5 1.4 1 3 1 1.7 0 3 .4 3 1 0 .5 1.3 1 3 1 1.5 0 3 .5 3.2 1.2.5 1.4 15.8-13.6 15.8-15.5 0-.7-1-2-2-2.7-1-.8-2-2.2-2-3.2s-.4-1.8-1-1.8c-.5 0-1-.8-1-1.8s-1-2.4-2-3.2c-1.5-1-2-2.6-2-6.2 0-2.6.5-4.8 1-4.8.6 0 1-2.3 1-5 0-2.8.5-5 1-5 1.4 0 1.2-7.8-.2-8.2-1.3-.5 7.5-9.8 9.2-9.8 2.5 0 6-5 6-8.5 0-2-.4-3.5-1-3.5-.5 0-1-1-1-2s-.4-2-1-2c-.5 0-1-1.4-1-3 0-1.7-.4-3-1-3-.5 0-1-1-1-2 0-1.8-.7-2-8-2-4.7 0-8 .4-8 1 0 .5-1 1-2.6 1-1.8 0-4.2-1.8-8.4-6-3.2-3.3-6.5-6-7.2-6-.8 0-2-1-2.8-2-.8-1-2.2-2-3.2-2s-1.8-.7-1.8-2c0-1-.4-2-1-2-.5 0-1-2.3-1-5 0-2.8-.4-5-1-5-.5 0-1-1.2-1-2.6 0-4-2.2-5.4-8.4-5.4-3 0-5.6-.5-5.6-1 0-.6-1.8-1-4-1-3.2 0-4 .4-4 1.8zm8 51.2c0 .5 1 1 2 1s2 .4 2 1c0 .5.7 1 1.5 1 2 0 6.5 4.5 6.5 6.5 0 .8.5 1.5 1 1.5.6 0 1 1 1 2s.5 2 1 2c.6 0 1 3.3 1 8s-.4 8-1 8c-.5 0-1 1-1 2s-.4 2-1 2c-.5 0-1 .7-1 1.5 0 1-1 2.7-2.5 4-1.3 1.4-3 2.5-4 2.5-.8 0-1.5.4-1.5 1 0 .5-1 1-2 1s-2 .4-2 1-3.3 1-8 1-8-.4-8-1-1-1-2-1-2-.5-2-1c0-.6-.7-1-1.5-1-2 0-8.5-6.5-8.5-8.5 0-.8-.4-1.5-1-1.5-.5 0-1-1-1-2s-.4-2-1-2-1-2.7-1-6 .4-6 1-6 1-1.3 1-2.8c0-1.6.8-3.4 2-4.2 1-.8 2-2 2-2.8 0-1.8 2.5-4.2 4.4-4.2 1 0 1.6-.5 1.6-1 0-.6 1-1 2-1s2-.5 2-1c0-.6 3.7-1 9-1s9 .4 9 1z"></path></svg>