<svg xmlns="http://www.w3.org/2000/svg" version="1" viewBox="0 0 396 396">
<path fill="hsl(180, 85%, 44%)" d="M82.2 24.7l.3 24.8h33l.3-24.8L116 0H82l.2 24.7zM148.2 24.7l.3 24.8h33l.3-24.8L182 0h-34l.2 24.7zM214.2 24.7l.3 24.8h33l.3-24.8L248 0h-34l.2 24.7zM280.2 24.7l.3 24.8h33l.3-24.8L314 0h-34l.2 24.7zM66 198v132h264V66H66v132zm197.5 0v49.5h-131l-.3-48.5c0-26.7 0-49 .3-49.8.3-1 14-1.2 65.7-1l65.3.3V198zM0 99v17l24.8-.2 24.7-.3v-33l-24.7-.3L0 82v17zM346.4 83.3c-.2.7-.3 8.2-.2 16.7l.3 15.5 24.8.3 24.7.2V82h-24.5c-19.2 0-24.7.3-25 1.3zM0 165v17l24.8-.2 24.7-.3v-33l-24.7-.3L0 148v17zM346.4 149.3c-.2.7-.3 8.2-.2 16.7l.3 15.5 24.8.3 24.7.2v-34h-24.5c-19.2 0-24.7.3-25 1.3zM0 231v17l24.8-.2 24.7-.3v-33l-24.7-.3L0 214v17zM346.4 215.3c-.2.7-.3 8.2-.2 16.7l.3 15.5 24.8.3 24.7.2v-34h-24.5c-19.2 0-24.7.3-25 1.3zM0 297v17l24.8-.2 24.7-.3v-33l-24.7-.3L0 280v17zM346.4 281.3c-.2.7-.3 8.2-.2 16.7l.3 15.5 24.8.3 24.7.2v-34h-24.5c-19.2 0-24.7.3-25 1.3zM82.7 346.6c-.4.4-.7 11.7-.7 25V396h34l-.2-24.8-.3-24.7-16-.3c-9 0-16.4 0-16.8.4zM148.7 346.6c-.4.4-.7 11.7-.7 25V396h34l-.2-24.8-.3-24.7-16-.3c-9 0-16.4 0-16.8.4zM214.7 346.6c-.4.4-.7 11.7-.7 25V396h34l-.2-24.8-.3-24.7-16-.3c-9 0-16.4 0-16.8.4zM280.7 346.6c-.4.4-.7 11.7-.7 25V396h34l-.2-24.8-.3-24.7-16-.3c-9 0-16.4 0-16.8.4z">
</path>
</svg>